<svg width="150" height="75" viewBox="0 0 635 630" fill="none" xmlns="http://www.w3.org/2000/svg">
<rect width="635" height="630" fill="#1f2937"/>
<path fill-rule="evenodd" clip-rule="evenodd" d="M160 136.115V223H354V29H267V116.115C267 127.16 258.046 136.115 247 136.115H160Z" fill="white"/>
<path d="M160 49C160 37.9543 168.954 29 180 29H250V119H160V49Z" fill="white"/>
<path fill-rule="evenodd" clip-rule="evenodd" d="M160 239V309C160 320.046 168.954 329 180 329H456C467.046 329 476 320.046 476 309V49C476 37.9543 467.046 29 456 29H367.507V219C367.507 230.046 358.552 239 347.507 239H160Z" fill="white"/>
<path d="M204.196 479.566C196.076 479.566 189.29 477.826 183.838 474.346C178.502 470.866 174.442 466.052 171.658 459.904C168.874 453.756 167.25 446.622 166.786 438.502L184.186 433.804C184.534 438.792 185.288 443.606 186.448 448.246C187.724 452.886 189.754 456.714 192.538 459.73C195.322 462.63 199.208 464.08 204.196 464.08C209.3 464.08 213.128 462.688 215.68 459.904C218.348 457.004 219.682 452.886 219.682 447.55C219.682 441.17 218.232 436.066 215.332 432.238C212.432 428.294 208.778 424.35 204.37 420.406L180.706 399.526C176.066 395.466 172.644 391.058 170.44 386.302C168.236 381.43 167.134 375.456 167.134 368.38C167.134 358.056 170.092 350.052 176.008 344.368C181.924 338.684 189.986 335.842 200.194 335.842C205.762 335.842 210.634 336.596 214.81 338.104C219.102 339.496 222.64 341.7 225.424 344.716C228.324 347.732 230.586 351.56 232.21 356.2C233.95 360.724 235.11 366.06 235.69 372.208L218.986 376.732C218.638 372.092 217.942 367.858 216.898 364.03C215.854 360.086 213.998 356.954 211.33 354.634C208.778 352.198 205.066 350.98 200.194 350.98C195.322 350.98 191.494 352.314 188.71 354.982C186.042 357.534 184.708 361.362 184.708 366.466C184.708 370.758 185.404 374.296 186.796 377.08C188.304 379.864 190.682 382.706 193.93 385.606L217.768 406.486C223.104 411.126 227.802 416.694 231.862 423.19C235.922 429.57 237.952 437.168 237.952 445.984C237.952 452.944 236.502 458.976 233.602 464.08C230.702 469.068 226.7 472.896 221.596 475.564C216.608 478.232 210.808 479.566 204.196 479.566ZM289.222 479.566C279.71 479.566 272.112 477.71 266.428 473.998C260.744 470.286 256.684 465.008 254.248 458.164C251.812 451.204 250.594 443.084 250.594 433.804V380.386C250.594 371.106 251.812 363.16 254.248 356.548C256.8 349.82 260.86 344.716 266.428 341.236C272.112 337.64 279.71 335.842 289.222 335.842C298.734 335.842 306.274 337.64 311.842 341.236C317.41 344.832 321.412 349.936 323.848 356.548C326.4 363.16 327.676 371.106 327.676 380.386V433.978C327.676 443.142 326.4 451.146 323.848 457.99C321.412 464.834 317.41 470.17 311.842 473.998C306.274 477.71 298.734 479.566 289.222 479.566ZM289.222 464.08C294.442 464.08 298.386 463.036 301.054 460.948C303.722 458.744 305.52 455.728 306.448 451.9C307.376 447.956 307.84 443.374 307.84 438.154V376.384C307.84 371.164 307.376 366.698 306.448 362.986C305.52 359.158 303.722 356.258 301.054 354.286C298.386 352.198 294.442 351.154 289.222 351.154C284.002 351.154 280 352.198 277.216 354.286C274.548 356.258 272.75 359.158 271.822 362.986C270.894 366.698 270.43 371.164 270.43 376.384V438.154C270.43 443.374 270.894 447.956 271.822 451.9C272.75 455.728 274.548 458.744 277.216 460.948C280 463.036 284.002 464.08 289.222 464.08ZM347.001 478V337.06H401.463V351.154H366.663V398.134H393.633V412.054H366.663V478H347.001ZM430.456 478V351.676H406.618V337.06H473.26V351.676H450.118V478H430.456Z" fill="white"/>
<path d="M168.316 606V499.08H209.632V509.772H183.232V545.412H203.692V555.972H183.232V606H168.316ZM219.879 606V499.08H234.795V595.308H262.119V606H219.879ZM298.894 607.188C291.678 607.188 285.914 605.78 281.602 602.964C277.29 600.148 274.21 596.144 272.362 590.952C270.514 585.672 269.59 579.512 269.59 572.472V531.948C269.59 524.908 270.514 518.88 272.362 513.864C274.298 508.76 277.378 504.888 281.602 502.248C285.914 499.52 291.678 498.156 298.894 498.156C306.11 498.156 311.83 499.52 316.054 502.248C320.278 504.976 323.314 508.848 325.162 513.864C327.098 518.88 328.066 524.908 328.066 531.948V572.604C328.066 579.556 327.098 585.628 325.162 590.82C323.314 596.012 320.278 600.06 316.054 602.964C311.83 605.78 306.11 607.188 298.894 607.188ZM298.894 595.44C302.854 595.44 305.846 594.648 307.87 593.064C309.894 591.392 311.258 589.104 311.962 586.2C312.666 583.208 313.018 579.732 313.018 575.772V528.912C313.018 524.952 312.666 521.564 311.962 518.748C311.258 515.844 309.894 513.644 307.87 512.148C305.846 510.564 302.854 509.772 298.894 509.772C294.934 509.772 291.898 510.564 289.786 512.148C287.762 513.644 286.398 515.844 285.694 518.748C284.99 521.564 284.638 524.952 284.638 528.912V575.772C284.638 579.732 284.99 583.208 285.694 586.2C286.398 589.104 287.762 591.392 289.786 593.064C291.898 594.648 294.934 595.44 298.894 595.44ZM370.05 607.188C362.834 607.188 357.07 605.78 352.758 602.964C348.446 600.148 345.366 596.144 343.518 590.952C341.67 585.672 340.746 579.512 340.746 572.472V531.948C340.746 524.908 341.67 518.88 343.518 513.864C345.454 508.76 348.534 504.888 352.758 502.248C357.07 499.52 362.834 498.156 370.05 498.156C377.266 498.156 382.986 499.52 387.21 502.248C391.434 504.976 394.47 508.848 396.318 513.864C398.254 518.88 399.222 524.908 399.222 531.948V572.604C399.222 579.556 398.254 585.628 396.318 590.82C394.47 596.012 391.434 600.06 387.21 602.964C382.986 605.78 377.266 607.188 370.05 607.188ZM370.05 595.44C374.01 595.44 377.002 594.648 379.026 593.064C381.05 591.392 382.414 589.104 383.118 586.2C383.822 583.208 384.174 579.732 384.174 575.772V528.912C384.174 524.952 383.822 521.564 383.118 518.748C382.414 515.844 381.05 513.644 379.026 512.148C377.002 510.564 374.01 509.772 370.05 509.772C366.09 509.772 363.054 510.564 360.942 512.148C358.918 513.644 357.554 515.844 356.85 518.748C356.146 521.564 355.794 524.952 355.794 528.912V575.772C355.794 579.732 356.146 583.208 356.85 586.2C357.554 589.104 358.918 591.392 360.942 593.064C363.054 594.648 366.09 595.44 370.05 595.44ZM413.882 606V499.08H435.398C442.526 499.08 448.422 500.048 453.086 501.984C457.75 503.832 461.182 506.868 463.382 511.092C465.67 515.228 466.814 520.684 466.814 527.46C466.814 531.596 466.374 535.38 465.494 538.812C464.614 542.156 463.206 545.016 461.27 547.392C459.334 549.68 456.782 551.352 453.614 552.408L468.794 606H454.406L440.414 555.84H428.798V606H413.882ZM428.798 545.148H434.474C438.698 545.148 442.13 544.62 444.77 543.564C447.41 542.508 449.346 540.704 450.578 538.152C451.81 535.6 452.426 532.036 452.426 527.46C452.426 521.212 451.282 516.724 448.994 513.996C446.706 511.18 442.174 509.772 435.398 509.772H428.798V545.148Z" fill="white"/>
</svg>
